<mxfile host="app.diagrams.net" modified="2023-11-12T21:59:02.918Z" agent="Mozilla/5.0 (Windows NT 10.0; Win64; x64) AppleWebKit/537.36 (KHTML, like Gecko) Chrome/116.0.0.0 Safari/537.36 OPR/102.0.0.0" etag="UeGy_X_UTTYSgGeJsbRg" version="22.1.0" type="google">
  <diagram id="R2lEEEUBdFMjLlhIrx00" name="Page-1">
    <mxGraphModel grid="0" page="1" gridSize="10" guides="1" tooltips="1" connect="1" arrows="1" fold="1" pageScale="1" pageWidth="850" pageHeight="1100" math="0" shadow="0" extFonts="Permanent Marker^https://fonts.googleapis.com/css?family=Permanent+Marker">
      <root>
        <mxCell id="0" />
        <mxCell id="1" parent="0" />
        <mxCell id="ALBZp67kfvB2JuTzSj98-4" value="&lt;font style=&quot;font-size: 23px;&quot;&gt;&lt;span style=&quot;color: rgb(0, 0, 0); font-family: Helvetica; font-style: normal; font-variant-ligatures: normal; font-variant-caps: normal; letter-spacing: normal; orphans: 2; text-align: center; text-indent: 0px; text-transform: none; widows: 2; word-spacing: 0px; -webkit-text-stroke-width: 0px; background-color: rgb(251, 251, 251); text-decoration-thickness: initial; text-decoration-style: initial; text-decoration-color: initial; float: none; font-size: 23px; display: inline !important;&quot;&gt;Iniciar Sistema&lt;/span&gt;&lt;br style=&quot;font-size: 23px;&quot;&gt;&lt;/font&gt;" style="rounded=0;whiteSpace=wrap;html=1;fontSize=23;fontStyle=1;strokeColor=default;shadow=0;fillColor=none;" vertex="1" parent="1">
          <mxGeometry x="120" y="20" width="160" height="90" as="geometry" />
        </mxCell>
        <mxCell id="ALBZp67kfvB2JuTzSj98-7" value="" style="endArrow=none;html=1;rounded=0;exitX=1;exitY=0.5;exitDx=0;exitDy=0;fontSize=23;fontStyle=1;strokeColor=default;shadow=0;" edge="1" parent="1" source="ALBZp67kfvB2JuTzSj98-4" target="ALBZp67kfvB2JuTzSj98-8">
          <mxGeometry width="50" height="50" relative="1" as="geometry">
            <mxPoint x="370" y="290" as="sourcePoint" />
            <mxPoint x="220" y="50" as="targetPoint" />
          </mxGeometry>
        </mxCell>
        <mxCell id="ALBZp67kfvB2JuTzSj98-8" value="&lt;font style=&quot;font-size: 23px;&quot;&gt;&lt;span style=&quot;color: rgb(0, 0, 0); font-family: Helvetica; font-style: normal; font-variant-ligatures: normal; font-variant-caps: normal; letter-spacing: normal; orphans: 2; text-align: center; text-indent: 0px; text-transform: none; widows: 2; word-spacing: 0px; -webkit-text-stroke-width: 0px; background-color: rgb(251, 251, 251); text-decoration-thickness: initial; text-decoration-style: initial; text-decoration-color: initial; float: none; font-size: 23px; display: inline !important;&quot;&gt;&lt;span style=&quot;font-size: 23px;&quot;&gt;&lt;font style=&quot;font-size: 23px;&quot;&gt;Pantalla Principal&lt;/font&gt;&lt;/span&gt;&lt;/span&gt;&lt;br style=&quot;font-size: 23px;&quot;&gt;&lt;/font&gt;" style="ellipse;whiteSpace=wrap;html=1;fontSize=23;fontStyle=1;strokeColor=default;shadow=0;fillColor=none;" vertex="1" parent="1">
          <mxGeometry x="395" y="5" width="150" height="120" as="geometry" />
        </mxCell>
        <mxCell id="ALBZp67kfvB2JuTzSj98-10" value="" style="endArrow=none;html=1;rounded=0;exitX=1;exitY=0.5;exitDx=0;exitDy=0;fontSize=23;entryX=0;entryY=0.5;entryDx=0;entryDy=0;fontStyle=1;strokeColor=default;shadow=0;" edge="1" parent="1" source="ALBZp67kfvB2JuTzSj98-8" target="ALBZp67kfvB2JuTzSj98-11">
          <mxGeometry width="50" height="50" relative="1" as="geometry">
            <mxPoint x="370" y="280" as="sourcePoint" />
            <mxPoint x="380" y="110" as="targetPoint" />
          </mxGeometry>
        </mxCell>
        <mxCell id="ALBZp67kfvB2JuTzSj98-11" value="&lt;font style=&quot;font-size: 23px;&quot;&gt;&lt;span style=&quot;font-size: 23px;&quot;&gt;Cerrar Sistema&lt;/span&gt;&lt;/font&gt;" style="rounded=0;whiteSpace=wrap;html=1;fontSize=23;fontStyle=1;strokeColor=default;shadow=0;fillColor=none;" vertex="1" parent="1">
          <mxGeometry x="652.5" y="-170" width="150" height="80" as="geometry" />
        </mxCell>
        <mxCell id="ALBZp67kfvB2JuTzSj98-13" value="" style="endArrow=none;html=1;rounded=0;exitX=1;exitY=0.5;exitDx=0;exitDy=0;fontSize=23;fontStyle=1;strokeColor=default;shadow=0;" edge="1" parent="1" source="ALBZp67kfvB2JuTzSj98-8" target="ALBZp67kfvB2JuTzSj98-14">
          <mxGeometry width="50" height="50" relative="1" as="geometry">
            <mxPoint x="370" y="280" as="sourcePoint" />
            <mxPoint x="220" y="160" as="targetPoint" />
          </mxGeometry>
        </mxCell>
        <mxCell id="ALBZp67kfvB2JuTzSj98-14" value="&lt;font style=&quot;font-size: 23px;&quot;&gt;&lt;span style=&quot;color: rgb(0, 0, 0); font-family: Helvetica; font-style: normal; font-variant-ligatures: normal; font-variant-caps: normal; letter-spacing: normal; orphans: 2; text-align: center; text-indent: 0px; text-transform: none; widows: 2; word-spacing: 0px; -webkit-text-stroke-width: 0px; background-color: rgb(251, 251, 251); text-decoration-thickness: initial; text-decoration-style: initial; text-decoration-color: initial; float: none; font-size: 23px; display: inline !important;&quot;&gt;&lt;span style=&quot;font-size: 23px;&quot;&gt;&lt;font style=&quot;font-size: 23px;&quot;&gt;Ingresar como Administrador&lt;/font&gt;&lt;/span&gt;&lt;/span&gt;&lt;br style=&quot;font-size: 23px;&quot;&gt;&lt;/font&gt;" style="ellipse;whiteSpace=wrap;html=1;aspect=fixed;fontSize=23;fontStyle=1;strokeColor=default;shadow=0;fillColor=none;" vertex="1" parent="1">
          <mxGeometry x="650" y="-12.499999999999995" width="155" height="155" as="geometry" />
        </mxCell>
        <mxCell id="ALBZp67kfvB2JuTzSj98-22" value="" style="endArrow=none;html=1;rounded=0;fontSize=23;entryX=0;entryY=0.5;entryDx=0;entryDy=0;exitX=1;exitY=0.5;exitDx=0;exitDy=0;fontStyle=1;strokeColor=default;shadow=0;" edge="1" parent="1" source="ALBZp67kfvB2JuTzSj98-14" target="ALBZp67kfvB2JuTzSj98-23">
          <mxGeometry width="50" height="50" relative="1" as="geometry">
            <mxPoint x="360" y="237" as="sourcePoint" />
            <mxPoint x="442.5" y="236.91" as="targetPoint" />
          </mxGeometry>
        </mxCell>
        <mxCell id="ALBZp67kfvB2JuTzSj98-23" value="&lt;font style=&quot;font-size: 23px;&quot;&gt;&lt;span style=&quot;font-size: 23px;&quot;&gt;&lt;span style=&quot;color: rgb(0, 0, 0); font-family: Helvetica; font-style: normal; font-variant-ligatures: normal; font-variant-caps: normal; letter-spacing: normal; orphans: 2; text-align: center; text-indent: 0px; text-transform: none; widows: 2; word-spacing: 0px; -webkit-text-stroke-width: 0px; background-color: rgb(251, 251, 251); text-decoration-thickness: initial; text-decoration-style: initial; text-decoration-color: initial; float: none; font-size: 23px; display: inline !important;&quot;&gt;Pantalla&lt;/span&gt;&lt;br style=&quot;border-color: var(--border-color); color: rgb(0, 0, 0); font-family: Helvetica; font-style: normal; font-variant-ligatures: normal; font-variant-caps: normal; letter-spacing: normal; orphans: 2; text-align: center; text-indent: 0px; text-transform: none; widows: 2; word-spacing: 0px; -webkit-text-stroke-width: 0px; background-color: rgb(251, 251, 251); text-decoration-thickness: initial; text-decoration-style: initial; text-decoration-color: initial; font-size: 23px;&quot;&gt;&lt;span style=&quot;color: rgb(0, 0, 0); font-family: Helvetica; font-style: normal; font-variant-ligatures: normal; font-variant-caps: normal; letter-spacing: normal; orphans: 2; text-align: center; text-indent: 0px; text-transform: none; widows: 2; word-spacing: 0px; -webkit-text-stroke-width: 0px; background-color: rgb(251, 251, 251); text-decoration-thickness: initial; text-decoration-style: initial; text-decoration-color: initial; float: none; font-size: 23px; display: inline !important;&quot;&gt;Log in&lt;/span&gt;&lt;/span&gt;&lt;br style=&quot;font-size: 23px;&quot;&gt;&lt;/font&gt;" style="ellipse;whiteSpace=wrap;html=1;aspect=fixed;fontSize=23;fontStyle=1;strokeColor=default;shadow=0;fillColor=none;" vertex="1" parent="1">
          <mxGeometry x="900" y="-15.629999999999995" width="158.13" height="158.13" as="geometry" />
        </mxCell>
        <mxCell id="ALBZp67kfvB2JuTzSj98-26" value="&lt;font style=&quot;font-size: 23px;&quot;&gt;&lt;span style=&quot;color: rgb(0, 0, 0); font-family: Helvetica; font-style: normal; font-variant-ligatures: normal; font-variant-caps: normal; letter-spacing: normal; orphans: 2; text-align: center; text-indent: 0px; text-transform: none; widows: 2; word-spacing: 0px; -webkit-text-stroke-width: 0px; background-color: rgb(251, 251, 251); text-decoration-thickness: initial; text-decoration-style: initial; text-decoration-color: initial; float: none; font-size: 23px; display: inline !important;&quot;&gt;&lt;font style=&quot;font-size: 23px;&quot;&gt;&lt;span style=&quot;font-size: 23px;&quot;&gt;Ingresar&lt;/span&gt;&lt;/font&gt;&lt;/span&gt;&lt;br style=&quot;font-size: 23px;&quot;&gt;&lt;/font&gt;" style="ellipse;whiteSpace=wrap;html=1;aspect=fixed;fontSize=23;fontStyle=1;strokeColor=default;shadow=0;fillColor=none;" vertex="1" parent="1">
          <mxGeometry x="1140" y="-12.5" width="150" height="150" as="geometry" />
        </mxCell>
        <mxCell id="ALBZp67kfvB2JuTzSj98-29" value="" style="endArrow=none;html=1;rounded=0;exitX=0.5;exitY=1;exitDx=0;exitDy=0;fontSize=23;entryX=0.5;entryY=0;entryDx=0;entryDy=0;fontStyle=1;strokeColor=default;shadow=0;" edge="1" parent="1" source="ALBZp67kfvB2JuTzSj98-31" target="ALBZp67kfvB2JuTzSj98-26">
          <mxGeometry width="50" height="50" relative="1" as="geometry">
            <mxPoint x="620" y="50" as="sourcePoint" />
            <mxPoint x="610" y="170" as="targetPoint" />
          </mxGeometry>
        </mxCell>
        <mxCell id="ALBZp67kfvB2JuTzSj98-30" value="" style="endArrow=none;html=1;rounded=0;entryX=1;entryY=0.5;entryDx=0;entryDy=0;exitX=0;exitY=0;exitDx=0;exitDy=0;fontSize=23;fontStyle=1;strokeColor=default;shadow=0;" edge="1" parent="1" source="ALBZp67kfvB2JuTzSj98-45" target="ALBZp67kfvB2JuTzSj98-26">
          <mxGeometry width="50" height="50" relative="1" as="geometry">
            <mxPoint x="540" y="480" as="sourcePoint" />
            <mxPoint x="540" y="420" as="targetPoint" />
          </mxGeometry>
        </mxCell>
        <mxCell id="ALBZp67kfvB2JuTzSj98-31" value="&lt;font style=&quot;font-size: 23px;&quot;&gt;&lt;span style=&quot;color: rgb(0, 0, 0); font-family: Helvetica; font-style: normal; font-variant-ligatures: normal; font-variant-caps: normal; letter-spacing: normal; orphans: 2; text-align: center; text-indent: 0px; text-transform: none; widows: 2; word-spacing: 0px; -webkit-text-stroke-width: 0px; background-color: rgb(251, 251, 251); text-decoration-thickness: initial; text-decoration-style: initial; text-decoration-color: initial; float: none; font-size: 23px; display: inline !important;&quot;&gt;&lt;font style=&quot;font-size: 23px;&quot;&gt;&lt;span style=&quot;font-size: 23px;&quot;&gt;Contraseña Incorrecta&lt;/span&gt;&lt;/font&gt;&lt;/span&gt;&lt;br style=&quot;font-size: 23px;&quot;&gt;&lt;/font&gt;" style="ellipse;whiteSpace=wrap;html=1;aspect=fixed;fontSize=23;fontStyle=1;strokeColor=default;shadow=0;fillColor=none;" vertex="1" parent="1">
          <mxGeometry x="1135" y="-260" width="160" height="160" as="geometry" />
        </mxCell>
        <mxCell id="ALBZp67kfvB2JuTzSj98-33" value="&lt;font style=&quot;font-size: 23px;&quot;&gt;&lt;span style=&quot;color: rgb(0, 0, 0); font-family: Helvetica; font-style: normal; font-variant-ligatures: normal; font-variant-caps: normal; letter-spacing: normal; orphans: 2; text-align: center; text-indent: 0px; text-transform: none; widows: 2; word-spacing: 0px; -webkit-text-stroke-width: 0px; background-color: rgb(251, 251, 251); text-decoration-thickness: initial; text-decoration-style: initial; text-decoration-color: initial; float: none; font-size: 23px; display: inline !important;&quot;&gt;&lt;span style=&quot;font-size: 23px;&quot;&gt;&lt;font style=&quot;font-size: 23px;&quot;&gt;Olvidé la contraseña&lt;/font&gt;&lt;/span&gt;&lt;/span&gt;&lt;br style=&quot;font-size: 23px;&quot;&gt;&lt;/font&gt;" style="ellipse;whiteSpace=wrap;html=1;aspect=fixed;fontSize=23;fontStyle=1;strokeColor=default;shadow=0;fillColor=none;" vertex="1" parent="1">
          <mxGeometry x="1145" y="-467.5" width="140" height="140" as="geometry" />
        </mxCell>
        <mxCell id="ALBZp67kfvB2JuTzSj98-34" value="" style="endArrow=none;html=1;rounded=0;entryX=0.5;entryY=0;entryDx=0;entryDy=0;exitX=0.5;exitY=1;exitDx=0;exitDy=0;fontSize=23;fontStyle=1;strokeColor=default;shadow=0;" edge="1" parent="1" source="ALBZp67kfvB2JuTzSj98-33" target="ALBZp67kfvB2JuTzSj98-31">
          <mxGeometry width="50" height="50" relative="1" as="geometry">
            <mxPoint x="420" y="220" as="sourcePoint" />
            <mxPoint x="470" y="170" as="targetPoint" />
          </mxGeometry>
        </mxCell>
        <mxCell id="ALBZp67kfvB2JuTzSj98-35" value="&lt;font style=&quot;font-size: 23px;&quot;&gt;&lt;span style=&quot;color: rgb(0, 0, 0); font-family: Helvetica; font-style: normal; font-variant-ligatures: normal; font-variant-caps: normal; letter-spacing: normal; orphans: 2; text-align: center; text-indent: 0px; text-transform: none; widows: 2; word-spacing: 0px; -webkit-text-stroke-width: 0px; background-color: rgb(251, 251, 251); text-decoration-thickness: initial; text-decoration-style: initial; text-decoration-color: initial; float: none; font-size: 23px; display: inline !important;&quot;&gt;&lt;font style=&quot;font-size: 23px;&quot;&gt;Ingresar contraseña nuevamente&lt;/font&gt;&lt;/span&gt;&lt;br style=&quot;font-size: 23px;&quot;&gt;&lt;/font&gt;" style="ellipse;whiteSpace=wrap;html=1;aspect=fixed;fontSize=23;fontStyle=1;strokeColor=default;shadow=0;fillColor=none;" vertex="1" parent="1">
          <mxGeometry x="945" y="-410" width="150" height="150" as="geometry" />
        </mxCell>
        <mxCell id="ALBZp67kfvB2JuTzSj98-36" value="" style="endArrow=none;html=1;rounded=0;entryX=0;entryY=0.5;entryDx=0;entryDy=0;exitX=0.5;exitY=1;exitDx=0;exitDy=0;fontSize=23;fontStyle=1;strokeColor=default;shadow=0;" edge="1" parent="1" source="ALBZp67kfvB2JuTzSj98-35" target="ALBZp67kfvB2JuTzSj98-31">
          <mxGeometry width="50" height="50" relative="1" as="geometry">
            <mxPoint x="420" y="135" as="sourcePoint" />
            <mxPoint x="648" y="33" as="targetPoint" />
          </mxGeometry>
        </mxCell>
        <mxCell id="ALBZp67kfvB2JuTzSj98-40" value="&lt;span style=&quot;color: rgb(0, 0, 0); font-family: Helvetica; font-style: normal; font-variant-ligatures: normal; font-variant-caps: normal; letter-spacing: normal; orphans: 2; text-align: center; text-indent: 0px; text-transform: none; widows: 2; word-spacing: 0px; -webkit-text-stroke-width: 0px; background-color: rgb(251, 251, 251); text-decoration-thickness: initial; text-decoration-style: initial; text-decoration-color: initial; float: none; font-size: 23px; display: inline !important;&quot;&gt;&lt;span style=&quot;font-size: 23px;&quot;&gt;&lt;font style=&quot;font-size: 23px;&quot;&gt;Mensaje con la contraseña&lt;/font&gt;&lt;/span&gt;&lt;/span&gt;" style="rounded=0;whiteSpace=wrap;html=1;fontSize=23;fontStyle=1;strokeColor=default;shadow=0;fillColor=none;" vertex="1" parent="1">
          <mxGeometry x="1126.88" y="-630" width="176.25" height="100" as="geometry" />
        </mxCell>
        <mxCell id="ALBZp67kfvB2JuTzSj98-45" value="&lt;span style=&quot;color: rgb(0, 0, 0); font-family: Helvetica; font-style: normal; font-variant-ligatures: normal; font-variant-caps: normal; letter-spacing: normal; orphans: 2; text-align: center; text-indent: 0px; text-transform: none; widows: 2; word-spacing: 0px; -webkit-text-stroke-width: 0px; background-color: rgb(251, 251, 251); text-decoration-thickness: initial; text-decoration-style: initial; text-decoration-color: initial; float: none; font-size: 23px; display: inline !important;&quot;&gt;&lt;font style=&quot;font-size: 23px;&quot;&gt;Control&lt;/font&gt;&lt;/span&gt;" style="ellipse;whiteSpace=wrap;html=1;aspect=fixed;fontSize=23;fontStyle=1;strokeColor=default;shadow=0;fillColor=none;" vertex="1" parent="1">
          <mxGeometry x="1648" y="20" width="245" height="245" as="geometry" />
        </mxCell>
        <mxCell id="ALBZp67kfvB2JuTzSj98-49" value="&lt;span style=&quot;color: rgb(0, 0, 0); font-family: Helvetica; font-size: 23px; font-style: normal; font-variant-ligatures: normal; font-variant-caps: normal; letter-spacing: normal; orphans: 2; text-align: center; text-indent: 0px; text-transform: none; widows: 2; word-spacing: 0px; -webkit-text-stroke-width: 0px; background-color: rgb(251, 251, 251); text-decoration-thickness: initial; text-decoration-style: initial; text-decoration-color: initial; float: none; display: inline !important;&quot;&gt;Validar Puntaje&lt;/span&gt;" style="ellipse;whiteSpace=wrap;html=1;aspect=fixed;fontSize=23;fontStyle=1;strokeColor=default;shadow=0;fillColor=none;" vertex="1" parent="1">
          <mxGeometry x="1920" y="-120" width="150" height="150" as="geometry" />
        </mxCell>
        <mxCell id="iBLAhYLwTg_BtjMcRojt-15" value="" style="edgeStyle=none;curved=1;rounded=0;orthogonalLoop=1;jettySize=auto;html=1;fontSize=12;startSize=8;endSize=8;" edge="1" parent="1" source="ALBZp67kfvB2JuTzSj98-50" target="iBLAhYLwTg_BtjMcRojt-14">
          <mxGeometry relative="1" as="geometry" />
        </mxCell>
        <mxCell id="iBLAhYLwTg_BtjMcRojt-17" value="" style="edgeStyle=none;curved=1;rounded=0;orthogonalLoop=1;jettySize=auto;html=1;fontSize=12;startSize=8;endSize=8;" edge="1" parent="1" source="ALBZp67kfvB2JuTzSj98-50" target="iBLAhYLwTg_BtjMcRojt-16">
          <mxGeometry relative="1" as="geometry" />
        </mxCell>
        <mxCell id="ALBZp67kfvB2JuTzSj98-50" value="&lt;span style=&quot;color: rgb(0, 0, 0); font-family: Helvetica; font-style: normal; font-variant-ligatures: normal; font-variant-caps: normal; letter-spacing: normal; orphans: 2; text-align: center; text-indent: 0px; text-transform: none; widows: 2; word-spacing: 0px; -webkit-text-stroke-width: 0px; background-color: rgb(251, 251, 251); text-decoration-thickness: initial; text-decoration-style: initial; text-decoration-color: initial; float: none; font-size: 23px; display: inline !important;&quot;&gt;&lt;font style=&quot;font-size: 23px;&quot;&gt;Datos competidores&lt;/font&gt;&lt;/span&gt;" style="ellipse;whiteSpace=wrap;html=1;aspect=fixed;fontSize=23;fontStyle=1;strokeColor=default;shadow=0;fillColor=none;" vertex="1" parent="1">
          <mxGeometry x="2010" y="265" width="150" height="150" as="geometry" />
        </mxCell>
        <mxCell id="ALBZp67kfvB2JuTzSj98-52" value="&lt;span style=&quot;color: rgb(0, 0, 0); font-family: Helvetica; font-style: normal; font-variant-ligatures: normal; font-variant-caps: normal; letter-spacing: normal; orphans: 2; text-align: center; text-indent: 0px; text-transform: none; widows: 2; word-spacing: 0px; -webkit-text-stroke-width: 0px; background-color: rgb(251, 251, 251); text-decoration-thickness: initial; text-decoration-style: initial; text-decoration-color: initial; float: none; display: inline !important;&quot;&gt;&lt;font style=&quot;font-size: 29px;&quot;&gt;Ver calificados&lt;/font&gt;&lt;/span&gt;" style="ellipse;whiteSpace=wrap;html=1;aspect=fixed;fontSize=23;fontStyle=1;strokeColor=default;shadow=0;fillColor=none;" vertex="1" parent="1">
          <mxGeometry x="1270" y="382" width="177.5" height="177.5" as="geometry" />
        </mxCell>
        <mxCell id="ALBZp67kfvB2JuTzSj98-53" value="&lt;span style=&quot;color: rgb(0, 0, 0); font-family: Helvetica; font-style: normal; font-variant-ligatures: normal; font-variant-caps: normal; letter-spacing: normal; orphans: 2; text-align: center; text-indent: 0px; text-transform: none; widows: 2; word-spacing: 0px; -webkit-text-stroke-width: 0px; background-color: rgb(251, 251, 251); text-decoration-thickness: initial; text-decoration-style: initial; text-decoration-color: initial; float: none; font-size: 23px; display: inline !important;&quot;&gt;&lt;font style=&quot;font-size: 23px;&quot;&gt;Datos Jueces&lt;/font&gt;&lt;/span&gt;" style="rounded=0;whiteSpace=wrap;html=1;fontSize=23;fontStyle=1;strokeColor=default;shadow=0;fillColor=none;" vertex="1" parent="1">
          <mxGeometry x="1240" y="137.5" width="170" height="80" as="geometry" />
        </mxCell>
        <mxCell id="ALBZp67kfvB2JuTzSj98-55" value="" style="endArrow=none;html=1;rounded=0;exitX=0.5;exitY=0;exitDx=0;exitDy=0;fontSize=23;fontStyle=1;entryX=0;entryY=0.5;entryDx=0;entryDy=0;strokeColor=default;shadow=0;" edge="1" parent="1" source="ALBZp67kfvB2JuTzSj98-53" target="ALBZp67kfvB2JuTzSj98-45">
          <mxGeometry width="50" height="50" relative="1" as="geometry">
            <mxPoint x="368.18" y="515" as="sourcePoint" />
            <mxPoint x="1750" y="280" as="targetPoint" />
          </mxGeometry>
        </mxCell>
        <mxCell id="ALBZp67kfvB2JuTzSj98-58" value="" style="endArrow=none;html=1;rounded=0;entryX=1;entryY=1;entryDx=0;entryDy=0;fontSize=23;fontStyle=1;strokeColor=default;shadow=0;exitX=0;exitY=0.5;exitDx=0;exitDy=0;" edge="1" parent="1" target="ALBZp67kfvB2JuTzSj98-45" source="ALBZp67kfvB2JuTzSj98-50">
          <mxGeometry width="50" height="50" relative="1" as="geometry">
            <mxPoint x="2020" y="143" as="sourcePoint" />
            <mxPoint x="1003.1799999999967" y="517.0000000000001" as="targetPoint" />
          </mxGeometry>
        </mxCell>
        <mxCell id="ALBZp67kfvB2JuTzSj98-75" value="&lt;span style=&quot;color: rgb(0, 0, 0); font-family: Helvetica; font-size: 23px; font-style: normal; font-variant-ligatures: normal; font-variant-caps: normal; letter-spacing: normal; orphans: 2; text-align: center; text-indent: 0px; text-transform: none; widows: 2; word-spacing: 0px; -webkit-text-stroke-width: 0px; background-color: rgb(251, 251, 251); text-decoration-thickness: initial; text-decoration-style: initial; text-decoration-color: initial; float: none; display: inline !important;&quot;&gt;Modificar Puntaje&lt;/span&gt;" style="ellipse;whiteSpace=wrap;html=1;aspect=fixed;fontSize=23;fontStyle=1;strokeColor=default;shadow=0;fillColor=none;" vertex="1" parent="1">
          <mxGeometry x="2198" y="-462" width="150" height="150" as="geometry" />
        </mxCell>
        <mxCell id="ALBZp67kfvB2JuTzSj98-79" value="" style="endArrow=none;html=1;rounded=0;exitX=0.5;exitY=0;exitDx=0;exitDy=0;entryX=0.25;entryY=1;entryDx=0;entryDy=0;fontSize=23;fontStyle=1;strokeColor=default;shadow=0;" edge="1" parent="1" source="ALBZp67kfvB2JuTzSj98-49" target="ALBZp67kfvB2JuTzSj98-80">
          <mxGeometry width="50" height="50" relative="1" as="geometry">
            <mxPoint x="644.9998051533946" y="751.8198051533946" as="sourcePoint" />
            <mxPoint x="678.1800000000001" y="767.1956828373095" as="targetPoint" />
          </mxGeometry>
        </mxCell>
        <mxCell id="ALBZp67kfvB2JuTzSj98-80" value="&lt;span style=&quot;color: rgb(0, 0, 0); font-family: Helvetica; font-size: 23px; font-style: normal; font-variant-ligatures: normal; font-variant-caps: normal; letter-spacing: normal; orphans: 2; text-align: center; text-indent: 0px; text-transform: none; widows: 2; word-spacing: 0px; -webkit-text-stroke-width: 0px; background-color: rgb(251, 251, 251); text-decoration-thickness: initial; text-decoration-style: initial; text-decoration-color: initial; float: none; display: inline !important;&quot;&gt;Guardar&amp;nbsp;Puntajes&lt;/span&gt;" style="rounded=0;whiteSpace=wrap;html=1;fontSize=23;fontStyle=1;strokeColor=default;shadow=0;fillColor=none;" vertex="1" parent="1">
          <mxGeometry x="2100" y="-590" width="220" height="100" as="geometry" />
        </mxCell>
        <mxCell id="ALBZp67kfvB2JuTzSj98-86" value="&lt;span style=&quot;color: rgb(0, 0, 0); font-family: Helvetica; font-style: normal; font-variant-ligatures: normal; font-variant-caps: normal; letter-spacing: normal; orphans: 2; text-align: center; text-indent: 0px; text-transform: none; widows: 2; word-spacing: 0px; -webkit-text-stroke-width: 0px; background-color: rgb(251, 251, 251); text-decoration-thickness: initial; text-decoration-style: initial; text-decoration-color: initial; float: none; font-size: 23px; display: inline !important;&quot;&gt;&lt;font style=&quot;font-size: 23px;&quot;&gt;Ingresar Competidor&lt;/font&gt;&lt;/span&gt;" style="ellipse;whiteSpace=wrap;html=1;aspect=fixed;fontSize=23;fontStyle=1;strokeColor=default;shadow=0;fillColor=none;" vertex="1" parent="1">
          <mxGeometry x="2275" y="192" width="130" height="130" as="geometry" />
        </mxCell>
        <mxCell id="ALBZp67kfvB2JuTzSj98-97" value="" style="endArrow=none;html=1;rounded=0;entryX=1;entryY=0;entryDx=0;entryDy=0;fontSize=23;fontStyle=1;exitX=0;exitY=0.5;exitDx=0;exitDy=0;strokeColor=default;shadow=0;" edge="1" parent="1" source="ALBZp67kfvB2JuTzSj98-86" target="ALBZp67kfvB2JuTzSj98-50">
          <mxGeometry width="50" height="50" relative="1" as="geometry">
            <mxPoint x="2250" y="99" as="sourcePoint" />
            <mxPoint x="340" y="600" as="targetPoint" />
          </mxGeometry>
        </mxCell>
        <mxCell id="ALBZp67kfvB2JuTzSj98-98" value="" style="endArrow=none;html=1;rounded=0;entryX=1;entryY=0.5;entryDx=0;entryDy=0;fontSize=23;fontStyle=1;exitX=0;exitY=0.5;exitDx=0;exitDy=0;strokeColor=default;shadow=0;" edge="1" parent="1" source="ALBZp67kfvB2JuTzSj98-100" target="ALBZp67kfvB2JuTzSj98-86">
          <mxGeometry width="50" height="50" relative="1" as="geometry">
            <mxPoint x="2315" y="230" as="sourcePoint" />
            <mxPoint x="528.18" y="845" as="targetPoint" />
          </mxGeometry>
        </mxCell>
        <mxCell id="ALBZp67kfvB2JuTzSj98-100" value="&lt;span style=&quot;color: rgb(0, 0, 0); font-family: Helvetica; font-style: normal; font-variant-ligatures: normal; font-variant-caps: normal; letter-spacing: normal; orphans: 2; text-align: center; text-indent: 0px; text-transform: none; widows: 2; word-spacing: 0px; -webkit-text-stroke-width: 0px; background-color: rgb(251, 251, 251); text-decoration-thickness: initial; text-decoration-style: initial; text-decoration-color: initial; float: none; font-size: 23px; display: inline !important;&quot;&gt;&lt;font style=&quot;font-size: 23px;&quot;&gt;&lt;span style=&quot;font-size: 23px;&quot;&gt;Guardar Datos&lt;/span&gt;&lt;/font&gt;&lt;/span&gt;" style="rounded=0;whiteSpace=wrap;html=1;fontSize=23;fontStyle=1;strokeColor=default;shadow=0;fillColor=none;" vertex="1" parent="1">
          <mxGeometry x="2443" y="227" width="177" height="60" as="geometry" />
        </mxCell>
        <mxCell id="ALBZp67kfvB2JuTzSj98-102" value="&lt;span style=&quot;color: rgb(0, 0, 0); font-family: Helvetica; font-style: normal; font-variant-ligatures: normal; font-variant-caps: normal; letter-spacing: normal; orphans: 2; text-align: center; text-indent: 0px; text-transform: none; widows: 2; word-spacing: 0px; -webkit-text-stroke-width: 0px; background-color: rgb(251, 251, 251); text-decoration-thickness: initial; text-decoration-style: initial; text-decoration-color: initial; float: none; font-size: 23px; display: inline !important;&quot;&gt;&lt;font style=&quot;font-size: 23px;&quot;&gt;&lt;span style=&quot;font-size: 23px;&quot;&gt;Faltan datos por ingresar&lt;/span&gt;&lt;/font&gt;&lt;/span&gt;" style="ellipse;whiteSpace=wrap;html=1;aspect=fixed;fontSize=23;fontStyle=1;strokeColor=default;shadow=0;fillColor=none;" vertex="1" parent="1">
          <mxGeometry x="2446" y="65" width="145" height="145" as="geometry" />
        </mxCell>
        <mxCell id="iBLAhYLwTg_BtjMcRojt-9" value="" style="edgeStyle=none;curved=1;rounded=0;orthogonalLoop=1;jettySize=auto;html=1;fontSize=12;startSize=8;endSize=8;" edge="1" parent="1" source="ALBZp67kfvB2JuTzSj98-122" target="iBLAhYLwTg_BtjMcRojt-8">
          <mxGeometry relative="1" as="geometry" />
        </mxCell>
        <mxCell id="ALBZp67kfvB2JuTzSj98-122" value="&lt;span style=&quot;color: rgb(0, 0, 0); font-family: Helvetica; font-size: 23px; font-style: normal; font-variant-ligatures: normal; font-variant-caps: normal; letter-spacing: normal; orphans: 2; text-align: center; text-indent: 0px; text-transform: none; widows: 2; word-spacing: 0px; -webkit-text-stroke-width: 0px; background-color: rgb(251, 251, 251); text-decoration-thickness: initial; text-decoration-style: initial; text-decoration-color: initial; float: none; display: inline !important;&quot;&gt;Torneo&lt;/span&gt;" style="ellipse;whiteSpace=wrap;html=1;aspect=fixed;fontSize=23;fontStyle=1;strokeColor=default;shadow=0;fillColor=none;" vertex="1" parent="1">
          <mxGeometry x="1600" y="362.75" width="137.5" height="137.5" as="geometry" />
        </mxCell>
        <mxCell id="ALBZp67kfvB2JuTzSj98-124" value="" style="endArrow=none;html=1;rounded=0;fontSize=23;exitX=0;exitY=0;exitDx=0;exitDy=0;fontStyle=1;strokeColor=default;shadow=0;" edge="1" parent="1" source="ALBZp67kfvB2JuTzSj98-125" target="ALBZp67kfvB2JuTzSj98-122">
          <mxGeometry width="50" height="50" relative="1" as="geometry">
            <mxPoint x="410" y="710" as="sourcePoint" />
            <mxPoint x="2220" y="600" as="targetPoint" />
          </mxGeometry>
        </mxCell>
        <mxCell id="ALBZp67kfvB2JuTzSj98-125" value="&lt;span style=&quot;color: rgb(0, 0, 0); font-family: Helvetica; font-size: 23px; font-style: normal; font-variant-ligatures: normal; font-variant-caps: normal; letter-spacing: normal; orphans: 2; text-align: center; text-indent: 0px; text-transform: none; widows: 2; word-spacing: 0px; -webkit-text-stroke-width: 0px; background-color: rgb(251, 251, 251); text-decoration-thickness: initial; text-decoration-style: initial; text-decoration-color: initial; float: none; display: inline !important;&quot;&gt;Crear torneo&lt;/span&gt;" style="ellipse;whiteSpace=wrap;html=1;aspect=fixed;fontSize=23;fontStyle=1;strokeColor=default;shadow=0;fillColor=none;" vertex="1" parent="1">
          <mxGeometry x="1808" y="516" width="173.18" height="173.18" as="geometry" />
        </mxCell>
        <mxCell id="ALBZp67kfvB2JuTzSj98-128" value="&lt;span style=&quot;color: rgb(0, 0, 0); font-family: Helvetica; font-size: 23px; font-style: normal; font-variant-ligatures: normal; font-variant-caps: normal; letter-spacing: normal; orphans: 2; text-align: center; text-indent: 0px; text-transform: none; widows: 2; word-spacing: 0px; -webkit-text-stroke-width: 0px; background-color: rgb(251, 251, 251); text-decoration-thickness: initial; text-decoration-style: initial; text-decoration-color: initial; float: none; display: inline !important;&quot;&gt;Guardar Datos&lt;/span&gt;" style="rounded=0;whiteSpace=wrap;html=1;fontSize=23;fontStyle=1;strokeColor=default;shadow=0;fillColor=none;" vertex="1" parent="1">
          <mxGeometry x="1935" y="763" width="186" height="64" as="geometry" />
        </mxCell>
        <mxCell id="ALBZp67kfvB2JuTzSj98-129" value="&lt;span style=&quot;color: rgb(0, 0, 0); font-family: Helvetica; font-size: 23px; font-style: normal; font-variant-ligatures: normal; font-variant-caps: normal; letter-spacing: normal; orphans: 2; text-align: center; text-indent: 0px; text-transform: none; widows: 2; word-spacing: 0px; -webkit-text-stroke-width: 0px; background-color: rgb(251, 251, 251); text-decoration-thickness: initial; text-decoration-style: initial; text-decoration-color: initial; float: none; display: inline !important;&quot;&gt;Faltan datos por ingresar&lt;/span&gt;" style="ellipse;whiteSpace=wrap;html=1;aspect=fixed;fontSize=23;fontStyle=1;strokeColor=default;shadow=0;fillColor=none;" vertex="1" parent="1">
          <mxGeometry x="2037" y="580" width="155" height="155" as="geometry" />
        </mxCell>
        <mxCell id="ALBZp67kfvB2JuTzSj98-131" value="" style="endArrow=none;html=1;rounded=0;entryX=1;entryY=0.5;entryDx=0;entryDy=0;exitX=0;exitY=0;exitDx=0;exitDy=0;fontSize=23;fontStyle=1;strokeColor=default;shadow=0;" edge="1" parent="1" source="ALBZp67kfvB2JuTzSj98-129" target="ALBZp67kfvB2JuTzSj98-125">
          <mxGeometry width="50" height="50" relative="1" as="geometry">
            <mxPoint x="374.99999999999994" y="767.5" as="sourcePoint" />
            <mxPoint x="424.99999999999994" y="717.5" as="targetPoint" />
          </mxGeometry>
        </mxCell>
        <mxCell id="ALBZp67kfvB2JuTzSj98-132" value="" style="endArrow=none;html=1;rounded=0;entryX=1;entryY=1;entryDx=0;entryDy=0;exitX=0.5;exitY=0;exitDx=0;exitDy=0;fontSize=23;fontStyle=1;strokeColor=default;shadow=0;" edge="1" parent="1" source="ALBZp67kfvB2JuTzSj98-128" target="ALBZp67kfvB2JuTzSj98-125">
          <mxGeometry width="50" height="50" relative="1" as="geometry">
            <mxPoint x="374.99999999999994" y="767.5" as="sourcePoint" />
            <mxPoint x="424.99999999999994" y="717.5" as="targetPoint" />
          </mxGeometry>
        </mxCell>
        <mxCell id="ALBZp67kfvB2JuTzSj98-134" value="" style="endArrow=none;html=1;rounded=0;entryX=0;entryY=1;entryDx=0;entryDy=0;fontSize=23;exitX=0.5;exitY=0;exitDx=0;exitDy=0;fontStyle=1;strokeColor=default;shadow=0;" edge="1" parent="1" source="ALBZp67kfvB2JuTzSj98-122" target="ALBZp67kfvB2JuTzSj98-45">
          <mxGeometry width="50" height="50" relative="1" as="geometry">
            <mxPoint x="520" y="580" as="sourcePoint" />
            <mxPoint x="658.18" y="755" as="targetPoint" />
          </mxGeometry>
        </mxCell>
        <mxCell id="ALBZp67kfvB2JuTzSj98-138" value="&lt;font style=&quot;font-size: 23px;&quot;&gt;Mostar&amp;nbsp;&lt;br style=&quot;font-size: 23px;&quot;&gt;Pantalla&lt;/font&gt;" style="ellipse;whiteSpace=wrap;html=1;aspect=fixed;fontSize=23;fontStyle=1;strokeColor=default;shadow=0;fillColor=none;" vertex="1" parent="1">
          <mxGeometry x="1682.5" y="-240" width="160" height="160" as="geometry" />
        </mxCell>
        <mxCell id="ALBZp67kfvB2JuTzSj98-151" value="Sorteo" style="ellipse;whiteSpace=wrap;html=1;aspect=fixed;fontSize=23;fontStyle=1;strokeColor=default;shadow=0;fillColor=none;" vertex="1" parent="1">
          <mxGeometry x="980" y="445" width="170" height="170" as="geometry" />
        </mxCell>
        <mxCell id="ALBZp67kfvB2JuTzSj98-154" value="Guardar Sorteo" style="rounded=0;whiteSpace=wrap;html=1;fontSize=23;fontStyle=1;strokeColor=default;shadow=0;fillColor=none;" vertex="1" parent="1">
          <mxGeometry x="730" y="524" width="170" height="87.5" as="geometry" />
        </mxCell>
        <mxCell id="ALBZp67kfvB2JuTzSj98-155" value="" style="endArrow=none;html=1;rounded=0;exitX=0;exitY=1;exitDx=0;exitDy=0;fontSize=23;entryX=1;entryY=0;entryDx=0;entryDy=0;fontStyle=1;strokeColor=default;shadow=0;" edge="1" parent="1" source="ALBZp67kfvB2JuTzSj98-49" target="ALBZp67kfvB2JuTzSj98-45">
          <mxGeometry width="50" height="50" relative="1" as="geometry">
            <mxPoint x="770" y="810" as="sourcePoint" />
            <mxPoint x="600" y="610" as="targetPoint" />
          </mxGeometry>
        </mxCell>
        <mxCell id="ALBZp67kfvB2JuTzSj98-156" value="" style="endArrow=none;html=1;rounded=0;entryX=0;entryY=0.5;entryDx=0;entryDy=0;exitX=1;exitY=0;exitDx=0;exitDy=0;fontSize=23;fontStyle=1;strokeColor=default;shadow=0;" edge="1" parent="1" source="ALBZp67kfvB2JuTzSj98-49" target="ALBZp67kfvB2JuTzSj98-75">
          <mxGeometry width="50" height="50" relative="1" as="geometry">
            <mxPoint x="770" y="810" as="sourcePoint" />
            <mxPoint x="820" y="760" as="targetPoint" />
          </mxGeometry>
        </mxCell>
        <mxCell id="ALBZp67kfvB2JuTzSj98-157" value="" style="endArrow=none;html=1;rounded=0;exitX=0.75;exitY=1;exitDx=0;exitDy=0;fontSize=23;fontStyle=1;entryX=0.5;entryY=0;entryDx=0;entryDy=0;strokeColor=default;shadow=0;" edge="1" parent="1" source="ALBZp67kfvB2JuTzSj98-80" target="ALBZp67kfvB2JuTzSj98-75">
          <mxGeometry width="50" height="50" relative="1" as="geometry">
            <mxPoint x="770" y="810" as="sourcePoint" />
            <mxPoint x="2160" y="-310" as="targetPoint" />
          </mxGeometry>
        </mxCell>
        <mxCell id="ALBZp67kfvB2JuTzSj98-158" value="" style="endArrow=none;html=1;rounded=0;entryX=0;entryY=0.5;entryDx=0;entryDy=0;fontSize=23;fontStyle=1;exitX=0.5;exitY=0;exitDx=0;exitDy=0;strokeColor=default;shadow=0;" edge="1" parent="1" source="ALBZp67kfvB2JuTzSj98-154" target="ALBZp67kfvB2JuTzSj98-151">
          <mxGeometry width="50" height="50" relative="1" as="geometry">
            <mxPoint x="1745" y="1070" as="sourcePoint" />
            <mxPoint x="1950" y="1018.75" as="targetPoint" />
          </mxGeometry>
        </mxCell>
        <mxCell id="ALBZp67kfvB2JuTzSj98-160" value="" style="endArrow=none;html=1;rounded=0;entryX=0;entryY=0.5;entryDx=0;entryDy=0;exitX=1;exitY=0;exitDx=0;exitDy=0;fontSize=23;fontStyle=1;strokeColor=default;shadow=0;" edge="1" parent="1" source="ALBZp67kfvB2JuTzSj98-151" target="ALBZp67kfvB2JuTzSj98-52">
          <mxGeometry width="50" height="50" relative="1" as="geometry">
            <mxPoint x="770" y="810" as="sourcePoint" />
            <mxPoint x="820" y="760" as="targetPoint" />
          </mxGeometry>
        </mxCell>
        <mxCell id="ALBZp67kfvB2JuTzSj98-161" value="" style="endArrow=none;html=1;rounded=0;entryX=0.5;entryY=0;entryDx=0;entryDy=0;fontSize=23;fontStyle=1;exitX=0.5;exitY=1;exitDx=0;exitDy=0;strokeColor=default;shadow=0;" edge="1" parent="1" source="ALBZp67kfvB2JuTzSj98-138" target="ALBZp67kfvB2JuTzSj98-45">
          <mxGeometry width="50" height="50" relative="1" as="geometry">
            <mxPoint x="1754" y="-240" as="sourcePoint" />
            <mxPoint x="640" y="760" as="targetPoint" />
          </mxGeometry>
        </mxCell>
        <mxCell id="ALBZp67kfvB2JuTzSj98-165" value="&lt;font style=&quot;font-size: 23px;&quot;&gt;Principal&lt;/font&gt;" style="rounded=0;whiteSpace=wrap;html=1;fontSize=23;fontStyle=1;strokeColor=default;shadow=0;fillColor=none;" vertex="1" parent="1">
          <mxGeometry x="1410" y="-200" width="220" height="80" as="geometry" />
        </mxCell>
        <mxCell id="ALBZp67kfvB2JuTzSj98-166" value="&lt;font style=&quot;font-size: 23px;&quot;&gt;Calificados&lt;/font&gt;" style="rounded=0;whiteSpace=wrap;html=1;fontSize=23;fontStyle=1;strokeColor=default;shadow=0;fillColor=none;" vertex="1" parent="1">
          <mxGeometry x="1420" y="-385" width="230" height="100" as="geometry" />
        </mxCell>
        <mxCell id="ALBZp67kfvB2JuTzSj98-167" value="&lt;font style=&quot;font-size: 23px;&quot;&gt;Datos Competidores&lt;/font&gt;" style="rounded=0;whiteSpace=wrap;html=1;fontSize=23;fontStyle=1;strokeColor=default;shadow=0;fillColor=none;" vertex="1" parent="1">
          <mxGeometry x="1700" y="-480" width="200" height="80" as="geometry" />
        </mxCell>
        <mxCell id="ALBZp67kfvB2JuTzSj98-171" value="Competidores" style="rounded=0;whiteSpace=wrap;html=1;fontSize=23;fontStyle=1;strokeColor=default;shadow=0;fillColor=none;" vertex="1" parent="1">
          <mxGeometry x="1870" y="-340" width="170" height="92.5" as="geometry" />
        </mxCell>
        <mxCell id="ALBZp67kfvB2JuTzSj98-172" value="" style="endArrow=none;html=1;rounded=0;exitX=0;exitY=1;exitDx=0;exitDy=0;fontSize=23;fontStyle=1;entryX=1;entryY=0;entryDx=0;entryDy=0;strokeColor=default;shadow=0;" edge="1" parent="1" source="ALBZp67kfvB2JuTzSj98-171" target="ALBZp67kfvB2JuTzSj98-138">
          <mxGeometry width="50" height="50" relative="1" as="geometry">
            <mxPoint x="590" y="800" as="sourcePoint" />
            <mxPoint x="1834" y="-160" as="targetPoint" />
          </mxGeometry>
        </mxCell>
        <mxCell id="ALBZp67kfvB2JuTzSj98-173" value="" style="endArrow=none;html=1;rounded=0;entryX=0;entryY=0.5;entryDx=0;entryDy=0;exitX=1;exitY=0.5;exitDx=0;exitDy=0;fontSize=23;fontStyle=1;strokeColor=default;shadow=0;" edge="1" parent="1" source="ALBZp67kfvB2JuTzSj98-165" target="ALBZp67kfvB2JuTzSj98-138">
          <mxGeometry width="50" height="50" relative="1" as="geometry">
            <mxPoint x="590" y="800" as="sourcePoint" />
            <mxPoint x="640" y="750" as="targetPoint" />
          </mxGeometry>
        </mxCell>
        <mxCell id="ALBZp67kfvB2JuTzSj98-174" value="" style="endArrow=none;html=1;rounded=0;entryX=0.638;entryY=0.008;entryDx=0;entryDy=0;exitX=0.5;exitY=1;exitDx=0;exitDy=0;fontSize=23;fontStyle=1;entryPerimeter=0;strokeColor=default;shadow=0;" edge="1" parent="1" source="ALBZp67kfvB2JuTzSj98-167" target="ALBZp67kfvB2JuTzSj98-138">
          <mxGeometry width="50" height="50" relative="1" as="geometry">
            <mxPoint x="590" y="800" as="sourcePoint" />
            <mxPoint x="640" y="750" as="targetPoint" />
          </mxGeometry>
        </mxCell>
        <mxCell id="ALBZp67kfvB2JuTzSj98-175" value="" style="endArrow=none;html=1;rounded=0;exitX=1;exitY=1;exitDx=0;exitDy=0;fontSize=23;fontStyle=1;strokeColor=default;shadow=0;" edge="1" parent="1" source="ALBZp67kfvB2JuTzSj98-166" target="ALBZp67kfvB2JuTzSj98-138">
          <mxGeometry width="50" height="50" relative="1" as="geometry">
            <mxPoint x="590" y="800" as="sourcePoint" />
            <mxPoint x="640" y="750" as="targetPoint" />
          </mxGeometry>
        </mxCell>
        <mxCell id="ALBZp67kfvB2JuTzSj98-177" value="" style="endArrow=none;html=1;rounded=0;exitX=0.014;exitY=0.631;exitDx=0;exitDy=0;entryX=1;entryY=0;entryDx=0;entryDy=0;fontSize=23;fontStyle=1;strokeColor=default;shadow=0;exitPerimeter=0;" edge="1" parent="1" source="ALBZp67kfvB2JuTzSj98-45" target="ALBZp67kfvB2JuTzSj98-178">
          <mxGeometry width="50" height="50" relative="1" as="geometry">
            <mxPoint x="590" y="800" as="sourcePoint" />
            <mxPoint x="570.0000000000002" y="877.5" as="targetPoint" />
          </mxGeometry>
        </mxCell>
        <mxCell id="ALBZp67kfvB2JuTzSj98-178" value="&lt;font style=&quot;font-size: 23px;&quot;&gt;Caso empate&lt;/font&gt;" style="ellipse;whiteSpace=wrap;html=1;aspect=fixed;fontSize=23;fontStyle=1;strokeColor=default;shadow=0;fillColor=none;" vertex="1" parent="1">
          <mxGeometry x="1236" y="235.5" width="140" height="140" as="geometry" />
        </mxCell>
        <mxCell id="ALBZp67kfvB2JuTzSj98-179" value="Sortear&lt;br style=&quot;font-size: 23px;&quot;&gt;Ganador" style="rounded=0;whiteSpace=wrap;html=1;fontSize=23;fontStyle=1;strokeColor=default;shadow=0;fillColor=none;" vertex="1" parent="1">
          <mxGeometry x="953" y="302" width="200" height="82.5" as="geometry" />
        </mxCell>
        <mxCell id="ALBZp67kfvB2JuTzSj98-181" value="" style="endArrow=none;html=1;rounded=0;entryX=0;entryY=0.5;entryDx=0;entryDy=0;exitX=0.5;exitY=0;exitDx=0;exitDy=0;fontSize=23;fontStyle=1;strokeColor=default;shadow=0;" edge="1" parent="1" source="ALBZp67kfvB2JuTzSj98-179" target="ALBZp67kfvB2JuTzSj98-178">
          <mxGeometry width="50" height="50" relative="1" as="geometry">
            <mxPoint x="610" y="980" as="sourcePoint" />
            <mxPoint x="640" y="810" as="targetPoint" />
          </mxGeometry>
        </mxCell>
        <mxCell id="ALBZp67kfvB2JuTzSj98-183" value="Enviar Puntaje a pantalla" style="ellipse;whiteSpace=wrap;html=1;aspect=fixed;fontSize=23;fontStyle=1;strokeColor=default;shadow=0;fillColor=none;" vertex="1" parent="1">
          <mxGeometry x="2111" y="-157" width="135" height="135" as="geometry" />
        </mxCell>
        <mxCell id="ALBZp67kfvB2JuTzSj98-184" value="" style="endArrow=none;html=1;rounded=0;exitX=0;exitY=1;exitDx=0;exitDy=0;fontSize=23;entryX=1;entryY=0;entryDx=0;entryDy=0;fontStyle=1;strokeColor=default;shadow=0;" edge="1" parent="1" source="ALBZp67kfvB2JuTzSj98-185" target="ALBZp67kfvB2JuTzSj98-183">
          <mxGeometry width="50" height="50" relative="1" as="geometry">
            <mxPoint x="910" y="760" as="sourcePoint" />
            <mxPoint x="850" y="730" as="targetPoint" />
          </mxGeometry>
        </mxCell>
        <mxCell id="ALBZp67kfvB2JuTzSj98-185" value="Se debe guardar el puntaje Primero" style="ellipse;whiteSpace=wrap;html=1;aspect=fixed;fontSize=23;fontStyle=1;strokeColor=default;shadow=0;fillColor=none;" vertex="1" parent="1">
          <mxGeometry x="2237.5" y="-285" width="165" height="165" as="geometry" />
        </mxCell>
        <mxCell id="ALBZp67kfvB2JuTzSj98-186" value="" style="endArrow=none;html=1;rounded=0;entryX=1;entryY=0.5;entryDx=0;entryDy=0;exitX=0;exitY=0.5;exitDx=0;exitDy=0;fontSize=23;fontStyle=1;strokeColor=default;shadow=0;" edge="1" parent="1" source="ALBZp67kfvB2JuTzSj98-183" target="ALBZp67kfvB2JuTzSj98-49">
          <mxGeometry width="50" height="50" relative="1" as="geometry">
            <mxPoint x="550" y="800" as="sourcePoint" />
            <mxPoint x="600" y="750" as="targetPoint" />
          </mxGeometry>
        </mxCell>
        <mxCell id="ALBZp67kfvB2JuTzSj98-191" value="" style="endArrow=none;html=1;rounded=0;entryX=0;entryY=0.5;entryDx=0;entryDy=0;exitX=1;exitY=0.5;exitDx=0;exitDy=0;fontSize=23;fontStyle=1;strokeColor=default;shadow=0;" edge="1" parent="1" source="ALBZp67kfvB2JuTzSj98-23" target="ALBZp67kfvB2JuTzSj98-26">
          <mxGeometry width="50" height="50" relative="1" as="geometry">
            <mxPoint x="480" y="220" as="sourcePoint" />
            <mxPoint x="530" y="170" as="targetPoint" />
          </mxGeometry>
        </mxCell>
        <mxCell id="ALBZp67kfvB2JuTzSj98-194" value="" style="endArrow=none;html=1;rounded=0;entryX=0.5;entryY=0;entryDx=0;entryDy=0;exitX=0.5;exitY=1;exitDx=0;exitDy=0;fontSize=23;fontStyle=1;strokeColor=default;shadow=0;" edge="1" parent="1" source="ALBZp67kfvB2JuTzSj98-40" target="ALBZp67kfvB2JuTzSj98-33">
          <mxGeometry width="50" height="50" relative="1" as="geometry">
            <mxPoint x="470" y="330" as="sourcePoint" />
            <mxPoint x="520" y="280" as="targetPoint" />
          </mxGeometry>
        </mxCell>
        <mxCell id="ALBZp67kfvB2JuTzSj98-195" value="" style="endArrow=none;html=1;rounded=0;exitX=0.5;exitY=0;exitDx=0;exitDy=0;fontSize=23;fontStyle=1;strokeColor=default;shadow=0;" edge="1" parent="1" source="ALBZp67kfvB2JuTzSj98-86" target="ALBZp67kfvB2JuTzSj98-102">
          <mxGeometry width="50" height="50" relative="1" as="geometry">
            <mxPoint x="370" y="430" as="sourcePoint" />
            <mxPoint x="420" y="380" as="targetPoint" />
          </mxGeometry>
        </mxCell>
        <mxCell id="KwZWftJI2gony6tHMlQl-1" value="&lt;font style=&quot;font-size: 26px;&quot;&gt;Sortear Competidores&lt;/font&gt;" style="ellipse;whiteSpace=wrap;html=1;aspect=fixed;strokeColor=default;shadow=0;fillColor=none;" vertex="1" parent="1">
          <mxGeometry x="2063" y="419.25" width="150" height="150" as="geometry" />
        </mxCell>
        <mxCell id="KwZWftJI2gony6tHMlQl-2" value="" style="endArrow=none;html=1;rounded=0;entryX=0.5;entryY=1;entryDx=0;entryDy=0;exitX=0;exitY=0;exitDx=0;exitDy=0;strokeColor=default;shadow=0;" edge="1" parent="1" source="KwZWftJI2gony6tHMlQl-1" target="ALBZp67kfvB2JuTzSj98-50">
          <mxGeometry width="50" height="50" relative="1" as="geometry">
            <mxPoint x="1910" y="370" as="sourcePoint" />
            <mxPoint x="1960" y="320" as="targetPoint" />
          </mxGeometry>
        </mxCell>
        <mxCell id="KwZWftJI2gony6tHMlQl-3" value="&lt;font style=&quot;font-size: 30px;&quot;&gt;Sortear&lt;/font&gt;" style="rounded=0;whiteSpace=wrap;html=1;strokeColor=default;shadow=0;fillColor=none;" vertex="1" parent="1">
          <mxGeometry x="2270" y="438" width="220" height="112.5" as="geometry" />
        </mxCell>
        <mxCell id="KwZWftJI2gony6tHMlQl-4" value="" style="endArrow=none;html=1;rounded=0;entryX=0;entryY=0.5;entryDx=0;entryDy=0;exitX=1;exitY=0.5;exitDx=0;exitDy=0;strokeColor=default;shadow=0;" edge="1" parent="1" source="KwZWftJI2gony6tHMlQl-1" target="KwZWftJI2gony6tHMlQl-3">
          <mxGeometry width="50" height="50" relative="1" as="geometry">
            <mxPoint x="1910" y="340" as="sourcePoint" />
            <mxPoint x="1960" y="290" as="targetPoint" />
          </mxGeometry>
        </mxCell>
        <mxCell id="KwZWftJI2gony6tHMlQl-7" value="" style="endArrow=none;html=1;rounded=0;entryX=0.041;entryY=0.72;entryDx=0;entryDy=0;strokeColor=default;shadow=0;entryPerimeter=0;" edge="1" parent="1" source="ALBZp67kfvB2JuTzSj98-52" target="ALBZp67kfvB2JuTzSj98-45">
          <mxGeometry width="50" height="50" relative="1" as="geometry">
            <mxPoint x="1830" y="520" as="sourcePoint" />
            <mxPoint x="1880" y="470" as="targetPoint" />
          </mxGeometry>
        </mxCell>
        <mxCell id="iBLAhYLwTg_BtjMcRojt-2" value="" style="endArrow=none;html=1;rounded=0;fontSize=12;startSize=8;endSize=8;curved=1;" edge="1" parent="1" source="iBLAhYLwTg_BtjMcRojt-3" target="ALBZp67kfvB2JuTzSj98-122">
          <mxGeometry width="50" height="50" relative="1" as="geometry">
            <mxPoint x="1714" y="618" as="sourcePoint" />
            <mxPoint x="1446" y="384" as="targetPoint" />
          </mxGeometry>
        </mxCell>
        <mxCell id="iBLAhYLwTg_BtjMcRojt-7" value="" style="edgeStyle=none;curved=1;rounded=0;orthogonalLoop=1;jettySize=auto;html=1;fontSize=12;startSize=8;endSize=8;" edge="1" parent="1" source="iBLAhYLwTg_BtjMcRojt-3" target="iBLAhYLwTg_BtjMcRojt-6">
          <mxGeometry relative="1" as="geometry" />
        </mxCell>
        <mxCell id="iBLAhYLwTg_BtjMcRojt-3" value="&lt;b&gt;&lt;font style=&quot;font-size: 30px;&quot;&gt;Torneos Existentes&lt;/font&gt;&lt;/b&gt;" style="ellipse;whiteSpace=wrap;html=1;aspect=fixed;fontSize=16;fillColor=none;" vertex="1" parent="1">
          <mxGeometry x="1308" y="573" width="164" height="164" as="geometry" />
        </mxCell>
        <mxCell id="iBLAhYLwTg_BtjMcRojt-6" value="&lt;font style=&quot;font-size: 31px;&quot;&gt;Eliminar torneo&lt;/font&gt;" style="whiteSpace=wrap;html=1;fontSize=16;fillColor=none;" vertex="1" parent="1">
          <mxGeometry x="1095" y="644" width="148" height="100" as="geometry" />
        </mxCell>
        <mxCell id="iBLAhYLwTg_BtjMcRojt-11" value="" style="edgeStyle=none;curved=1;rounded=0;orthogonalLoop=1;jettySize=auto;html=1;fontSize=12;startSize=8;endSize=8;" edge="1" parent="1" source="iBLAhYLwTg_BtjMcRojt-8" target="iBLAhYLwTg_BtjMcRojt-10">
          <mxGeometry relative="1" as="geometry" />
        </mxCell>
        <mxCell id="iBLAhYLwTg_BtjMcRojt-13" value="" style="edgeStyle=none;curved=1;rounded=0;orthogonalLoop=1;jettySize=auto;html=1;fontSize=12;startSize=8;endSize=8;" edge="1" parent="1" source="iBLAhYLwTg_BtjMcRojt-8" target="iBLAhYLwTg_BtjMcRojt-12">
          <mxGeometry relative="1" as="geometry" />
        </mxCell>
        <mxCell id="iBLAhYLwTg_BtjMcRojt-8" value="Crear Round" style="ellipse;whiteSpace=wrap;html=1;fontSize=23;fillColor=none;fontStyle=1;shadow=0;" vertex="1" parent="1">
          <mxGeometry x="1569" y="600" width="207" height="168" as="geometry" />
        </mxCell>
        <mxCell id="iBLAhYLwTg_BtjMcRojt-10" value="&lt;font style=&quot;font-size: 30px;&quot;&gt;Guardar datos&lt;/font&gt;" style="whiteSpace=wrap;html=1;fontSize=23;fillColor=none;fontStyle=1;shadow=0;" vertex="1" parent="1">
          <mxGeometry x="1591.5" y="817" width="154.5" height="80" as="geometry" />
        </mxCell>
        <mxCell id="iBLAhYLwTg_BtjMcRojt-12" value="Este round ya existe" style="ellipse;whiteSpace=wrap;html=1;fontSize=23;fillColor=none;fontStyle=1;shadow=0;" vertex="1" parent="1">
          <mxGeometry x="1754" y="735" width="158.5" height="156" as="geometry" />
        </mxCell>
        <mxCell id="iBLAhYLwTg_BtjMcRojt-14" value="Competidores Ingresados" style="whiteSpace=wrap;html=1;fontSize=23;fillColor=none;fontStyle=1;shadow=0;" vertex="1" parent="1">
          <mxGeometry x="2275" y="358" width="183" height="68" as="geometry" />
        </mxCell>
        <mxCell id="iBLAhYLwTg_BtjMcRojt-19" value="" style="edgeStyle=none;curved=1;rounded=0;orthogonalLoop=1;jettySize=auto;html=1;fontSize=12;startSize=8;endSize=8;" edge="1" parent="1" source="iBLAhYLwTg_BtjMcRojt-16" target="iBLAhYLwTg_BtjMcRojt-18">
          <mxGeometry relative="1" as="geometry" />
        </mxCell>
        <mxCell id="iBLAhYLwTg_BtjMcRojt-16" value="Ingresar competidor a torneo" style="ellipse;whiteSpace=wrap;html=1;fontSize=23;fillColor=none;fontStyle=1;shadow=0;" vertex="1" parent="1">
          <mxGeometry x="1998" y="57" width="180" height="170" as="geometry" />
        </mxCell>
        <mxCell id="iBLAhYLwTg_BtjMcRojt-18" value="Guardar Datos" style="whiteSpace=wrap;html=1;fontSize=23;fillColor=none;fontStyle=1;shadow=0;" vertex="1" parent="1">
          <mxGeometry x="2198" y="107" width="167" height="66.5" as="geometry" />
        </mxCell>
        <mxCell id="iBLAhYLwTg_BtjMcRojt-22" value="" style="endArrow=none;html=1;rounded=0;fontSize=12;startSize=8;endSize=8;curved=1;entryX=1;entryY=0;entryDx=0;entryDy=0;exitX=0;exitY=0.5;exitDx=0;exitDy=0;" edge="1" parent="1" source="iBLAhYLwTg_BtjMcRojt-25" target="iBLAhYLwTg_BtjMcRojt-16">
          <mxGeometry width="50" height="50" relative="1" as="geometry">
            <mxPoint x="2370" y="12" as="sourcePoint" />
            <mxPoint x="2051" y="39" as="targetPoint" />
          </mxGeometry>
        </mxCell>
        <mxCell id="iBLAhYLwTg_BtjMcRojt-25" value="&lt;b&gt;Faltan datos por ingresar/Hay datos no válidos&lt;/b&gt;" style="ellipse;whiteSpace=wrap;html=1;aspect=fixed;fontSize=16;fillColor=none;" vertex="1" parent="1">
          <mxGeometry x="2237.5" y="-67" width="169" height="169" as="geometry" />
        </mxCell>
      </root>
    </mxGraphModel>
  </diagram>
</mxfile>
